<?xml version="1.0" standalone="no"?>
<!DOCTYPE svg PUBLIC "-//W3C//DTD SVG 20010904//EN"
 "http://www.w3.org/TR/2001/REC-SVG-20010904/DTD/svg10.dtd">
<svg version="1.0" xmlns="http://www.w3.org/2000/svg"
 width="300.000000pt" height="300.000000pt" viewBox="0 0 300.000000 300.000000"
 preserveAspectRatio="xMidYMid meet">
<metadata>
Created by potrace 1.11, written by Peter Selinger 2001-2013
</metadata>
<g transform="translate(0.000000,300.000000) scale(0.100000,-0.100000)"
fill="#000000" stroke="none">
<path d="M410 1983 c0 -8 7 -16 15 -19 24 -9 24 -8 -57 -184 -326 -707 -311
-676 -338 -685 -11 -3 -20 -13 -20 -21 0 -13 17 -17 72 -17 10 0 15 -3 13 -7
-3 -5 1 -11 7 -14 7 -3 3 -3 -9 0 -14 3 -23 1 -23 -6 0 -6 -4 -9 -8 -6 -4 2
-9 -5 -9 -17 -2 -20 -1 -20 8 -4 11 19 29 23 29 6 0 -5 -5 -7 -10 -4 -6 3 -10
1 -10 -4 0 -15 23 -14 40 1 12 11 12 10 1 -4 -7 -10 -20 -18 -27 -18 -8 0 -14
-5 -14 -10 0 -6 13 -4 30 5 17 9 30 11 30 5 0 -5 -5 -10 -12 -10 -6 0 -8 -3
-5 -7 4 -3 15 0 24 9 10 8 27 14 38 14 11 -1 24 4 28 9 5 6 7 4 4 -5 -2 -9
-14 -15 -29 -14 -13 1 -25 -4 -25 -11 0 -6 6 -12 13 -12 7 0 11 4 8 8 -2 4 4
8 13 8 36 1 63 6 61 12 -2 4 5 16 15 27 12 13 16 26 11 34 -5 7 -9 26 -10 41
-2 22 0 26 10 18 9 -8 13 -7 13 4 0 8 -4 12 -9 9 -21 -13 1 38 25 56 28 22 35
40 16 40 -5 0 -8 -4 -4 -9 3 -5 1 -12 -5 -16 -16 -10 -12 19 6 41 8 10 13 14
10 8 -3 -7 1 -14 8 -17 10 -4 18 4 25 21 5 15 10 21 10 14 1 -7 6 -10 11 -7 6
3 10 1 10 -4 0 -6 -5 -11 -11 -11 -5 0 -7 -5 -3 -11 4 -8 12 -3 20 12 7 13 13
20 14 15 0 -5 8 -2 17 5 9 8 14 9 10 3 -10 -18 16 -35 33 -22 13 8 13 9 -1 5
-9 -3 -16 1 -16 8 0 7 8 10 19 7 10 -2 18 -8 18 -12 0 -4 7 -11 16 -14 13 -5
14 -4 6 7 -9 10 -8 14 3 14 8 0 15 -4 15 -8 0 -4 7 -10 16 -13 13 -5 14 -4 6
7 -9 10 -8 14 3 14 8 0 15 -4 15 -8 0 -4 7 -10 16 -13 13 -5 14 -4 6 7 -9 10
-8 14 3 14 8 0 15 -4 15 -8 0 -17 35 -19 47 -3 12 16 13 16 13 1 0 -12 7 -15
32 -12 17 2 35 10 39 17 7 10 9 10 10 -2 1 -8 1 -18 0 -23 -1 -4 8 -2 18 5 11
7 17 16 14 22 -3 5 -1 6 6 2 9 -6 9 -11 0 -22 -10 -12 -9 -13 5 -8 11 4 16 1
16 -10 0 -9 5 -16 11 -16 5 0 8 -4 4 -9 -3 -5 -1 -12 5 -16 6 -4 8 -11 5 -16
-4 -5 -1 -9 4 -9 17 0 13 -40 -4 -46 -8 -4 -15 -12 -15 -20 0 -8 7 -15 15 -15
8 -1 24 -2 34 -3 11 0 23 -5 28 -10 5 -5 3 -6 -4 -2 -16 9 -16 1 -2 -25 5 -11
14 -17 19 -14 4 3 6 -4 3 -16 -5 -18 -3 -20 15 -14 18 5 21 3 16 -12 -5 -14
-4 -15 4 -3 6 8 9 17 6 21 -2 4 1 11 7 15 7 4 9 3 6 -3 -4 -6 6 -19 21 -28
l27 -18 -20 23 -20 23 31 -16 c17 -9 36 -12 43 -8 7 5 23 7 37 5 13 -1 22 2
19 6 -3 5 -13 7 -23 4 -11 -4 -9 1 7 14 18 14 21 21 11 27 -8 5 -11 4 -7 -2 4
-6 0 -14 -9 -17 -11 -4 -15 -2 -11 8 3 7 0 19 -6 26 -10 10 -8 11 8 6 17 -6
18 -5 7 6 -11 11 -16 10 -27 -5 -8 -12 -15 -14 -20 -8 -3 6 -1 11 4 11 6 0 10
11 9 24 -1 14 -5 24 -8 24 -18 -2 -21 4 -10 18 11 12 11 15 -1 12 -8 -2 -18
-7 -22 -13 -5 -5 -5 1 -1 15 6 23 6 24 -12 10 -13 -11 -12 -6 6 19 13 19 19
31 12 27 -7 -4 -15 -1 -18 8 -3 9 -11 16 -16 16 -7 0 -6 -5 1 -14 9 -10 8 -15
-3 -19 -10 -4 -13 -1 -9 9 3 7 0 14 -7 14 -7 0 -5 7 5 17 16 16 16 17 0 30
-10 7 -21 10 -26 8 -4 -3 -11 0 -15 6 -4 8 -3 9 4 5 13 -8 15 4 6 28 -3 9 -9
14 -13 12 -12 -8 -11 37 1 52 9 10 8 12 -3 10 -8 -2 -15 4 -15 12 -1 8 -3 20
-4 25 -1 6 -2 14 -1 18 1 4 -8 3 -19 -3 -11 -6 -20 -7 -19 -3 4 21 -2 33 -13
27 -7 -4 -8 -3 -4 4 4 6 13 9 21 6 8 -4 12 -11 8 -17 -4 -6 -1 -7 7 -2 10 6
10 11 -3 20 -9 7 -14 15 -10 19 4 4 0 4 -10 0 -13 -5 -16 -2 -11 10 4 11 2 16
-7 14 -7 -2 -13 6 -14 17 0 11 -5 19 -11 18 -7 -1 -9 8 -6 24 4 20 2 24 -9 18
-11 -7 -11 -5 1 10 9 11 10 16 3 11 -12 -6 -18 5 -14 27 0 4 -3 7 -9 7 -5 0
-7 7 -4 15 4 10 2 13 -8 10 -9 -4 -15 0 -15 9 0 8 3 13 7 11 4 -2 7 3 7 11 0
9 -6 13 -15 9 -10 -4 -12 0 -8 11 5 12 2 15 -9 10 -9 -3 -13 -2 -10 3 3 5 1
12 -5 16 -15 10 -12 23 8 28 16 4 16 5 0 6 -16 1 -23 12 -19 34 1 7 -15 11
-32 8 -5 -1 -6 3 -2 8 3 6 13 8 23 5 10 -4 13 -2 7 3 -5 4 -11 15 -13 23 -2 8
-8 17 -13 18 -5 2 -9 8 -9 13 0 6 4 7 10 4 5 -3 7 0 4 9 -3 8 -11 14 -17 12
-7 -1 -9 -1 -4 1 15 9 6 22 -13 18 -11 -2 -20 1 -20 6 0 6 -4 8 -8 5 -5 -3 -9
1 -9 9 0 8 4 12 8 10 8 -6 22 26 14 33 -3 3 -55 7 -115 7 -87 1 -110 -1 -110
-12z m276 -135 c4 -7 3 -8 -4 -4 -7 4 -12 2 -12 -5 0 -7 -3 -10 -6 -6 -6 5 3
27 11 27 2 0 7 -5 11 -12z m-110 -123 c9 -8 13 -15 9 -15 -3 0 3 -12 12 -27
14 -21 15 -26 3 -19 -13 7 -13 6 0 -6 22 -20 46 -63 28 -52 -7 4 -3 -4 9 -20
13 -15 19 -34 16 -43 -4 -11 -2 -14 5 -9 8 5 12 0 12 -13 0 -10 5 -21 10 -23
6 -2 12 -13 13 -26 0 -12 5 -22 10 -22 4 0 5 -4 2 -10 -3 -5 0 -10 7 -11 7 0
4 -4 -7 -8 -33 -13 -278 -6 -283 8 -3 9 -8 9 -20 -1 -9 -7 -2 5 16 28 18 23
32 45 31 50 -3 20 2 28 10 16 6 -10 10 -9 14 7 3 12 1 19 -4 15 -5 -3 -9 -1
-9 3 0 5 9 14 20 21 17 11 19 16 9 35 l-12 22 24 -20 c13 -11 18 -13 12 -4
-10 12 -7 23 14 54 14 21 21 35 15 31 -14 -8 -12 36 3 46 14 10 14 10 31 -7z
m-54 -52 c-6 -2 -9 -10 -6 -15 4 -7 2 -8 -5 -4 -13 9 -5 26 12 25 9 0 8 -2 -1
-6z m-32 -89 c0 -8 -19 -13 -24 -6 -3 5 1 9 9 9 8 0 15 -2 15 -3z m404 -195
c-3 -5 -10 -7 -15 -3 -5 3 -7 10 -3 15 3 5 10 7 15 3 5 -3 7 -10 3 -15z m11
-29 c3 -5 1 -10 -4 -10 -6 0 -11 5 -11 10 0 6 2 10 4 10 3 0 8 -4 11 -10z
m-255 -122 c0 -4 -4 -8 -9 -8 -6 0 -12 4 -15 8 -3 5 1 9 9 9 8 0 15 -4 15 -9z
m80 6 c0 -8 -19 -13 -24 -6 -3 5 1 9 9 9 8 0 15 -2 15 -3z m-436 -62 c3 -5 -1
-9 -9 -9 -8 0 -12 4 -9 9 3 4 7 8 9 8 2 0 6 -4 9 -8z m-39 -110 c-1 -9 2 -23
8 -30 7 -9 5 -18 -7 -30 -9 -10 -13 -22 -9 -25 3 -4 1 -7 -5 -7 -13 0 -12 27
2 49 5 8 3 16 -5 22 -9 6 -10 9 -2 9 6 0 10 9 8 20 -2 11 0 18 5 15 4 -3 7
-13 5 -23z m813 -76 c-2 -1 -10 -7 -20 -14 -12 -10 -18 -10 -24 -1 -4 8 -3 9
5 5 6 -4 14 0 17 8 3 9 10 13 16 10 5 -3 8 -7 6 -8z"/>
<path d="M546 1721 c-4 -5 -2 -12 3 -15 5 -4 12 -2 15 3 4 5 2 12 -3 15 -5 4
-12 2 -15 -3z"/>
<path d="M974 1991 c-9 -10 -3 -18 22 -29 14 -7 22 -17 19 -22 -3 -6 -1 -10 4
-10 6 0 10 -3 9 -7 -1 -5 15 -43 36 -85 21 -42 35 -81 32 -86 -3 -4 4 -16 15
-25 16 -15 21 -29 18 -53 0 -4 3 -10 8 -13 4 -3 14 -17 21 -30 11 -19 11 -22
0 -16 -7 3 -6 1 3 -7 9 -7 14 -19 12 -25 -3 -7 1 -13 7 -13 7 0 10 -8 7 -20
-3 -10 -2 -19 2 -18 19 2 24 -3 11 -12 -13 -8 -12 -10 3 -10 9 0 17 -7 17 -16
0 -9 -5 -12 -12 -8 -7 4 -8 3 -4 -5 4 -6 11 -9 15 -6 10 6 33 -44 26 -56 -4
-5 -1 -9 5 -9 7 0 9 -7 6 -15 -3 -9 1 -18 9 -21 8 -4 15 -13 15 -21 0 -8 -5
-11 -12 -7 -7 4 -8 3 -4 -5 4 -6 12 -9 17 -6 9 6 11 1 13 -27 1 -7 8 -19 16
-26 13 -12 13 -13 0 -6 -11 6 -10 2 3 -13 9 -11 14 -23 10 -26 -3 -4 -1 -7 6
-7 7 0 9 -5 6 -10 -3 -5 -2 -10 3 -10 6 0 17 -20 26 -45 14 -43 14 -47 -4 -65
-27 -27 -25 -38 8 -42 16 -2 26 -8 24 -17 -2 -8 3 -11 11 -8 10 4 13 -5 12
-33 l-1 -37 33 9 c36 10 57 3 47 -15 -4 -7 -1 -7 7 1 12 11 11 15 -5 28 -11 8
-15 14 -9 14 7 0 15 -5 18 -10 4 -6 11 -7 17 -4 7 5 9 1 5 -9 -3 -9 -1 -19 5
-23 7 -5 8 -2 3 6 -6 10 -4 12 10 6 16 -6 16 -4 4 10 -13 16 -12 16 8 6 29
-16 46 -15 37 1 -5 7 0 6 11 -3 13 -10 16 -11 11 -2 -6 9 -3 12 10 10 16 -3
19 4 20 45 0 35 -3 46 -13 43 -7 -3 -15 -1 -18 5 -4 5 -1 8 6 7 7 -2 13 3 14
10 0 14 13 17 23 6 4 -4 1 -4 -7 1 -10 5 -12 4 -7 -4 4 -6 12 -9 17 -5 5 3 7
10 4 15 -15 23 -13 46 3 45 18 -1 18 5 6 39 l-7 20 17 -20 c16 -19 16 -19 6 8
-7 21 -7 26 2 21 8 -5 9 -2 5 9 -3 9 1 23 9 32 9 8 12 15 8 15 -5 0 -3 5 3 11
6 6 9 19 6 28 -4 13 -3 14 5 1 7 -9 7 -19 2 -25 -6 -8 -5 -12 4 -12 9 0 13 8
10 24 -3 15 0 22 8 21 9 -2 13 11 13 44 0 39 2 45 16 38 11 -6 16 -5 16 5 0 8
-4 12 -8 10 -6 -4 -5 18 1 35 1 3 2 9 1 14 -1 5 5 3 14 -4 8 -7 18 -10 22 -6
3 3 2 6 -4 6 -5 0 -10 7 -10 15 0 10 6 14 16 10 8 -3 12 -3 8 1 -4 4 -1 14 6
23 11 14 10 14 -6 2 -15 -12 -17 -12 -11 2 3 9 14 19 25 22 20 7 27 25 9 25
-5 0 -10 -4 -10 -10 0 -5 -5 -10 -12 -10 -9 0 -9 3 0 12 15 15 16 31 0 22 -7
-4 -8 -3 -4 5 4 6 12 9 17 6 9 -6 12 3 12 36 0 9 6 16 13 16 10 0 11 -4 3 -14
-6 -7 -8 -13 -5 -13 4 0 2 -10 -4 -22 -11 -22 -10 -22 4 -4 9 10 13 22 11 27
-3 4 -1 11 5 14 8 5 7 12 -2 22 -11 14 -10 15 12 9 18 -5 21 -4 11 3 -16 10
-25 45 -10 35 5 -3 6 -11 3 -17 -4 -7 -3 -8 2 -4 5 5 9 16 9 25 0 9 6 16 13
14 10 -2 10 2 1 20 -11 21 -11 22 5 9 9 -8 16 -9 14 -3 -2 6 6 18 17 27 11 9
14 14 8 10 -7 -3 -21 -1 -30 4 -11 6 -13 11 -5 11 7 0 10 5 6 12 -4 7 -3 8 5
4 6 -4 8 -13 5 -19 -4 -7 -3 -8 1 -4 8 7 15 28 17 54 1 7 5 10 10 7 10 -7 10
-1 -2 31 -7 17 -7 24 0 20 6 -3 10 -12 10 -20 0 -8 4 -16 9 -19 17 -11 5 40
-14 57 -11 10 -15 16 -10 13 6 -2 17 0 25 5 12 7 11 8 -5 6 -30 -4 -46 -17
-39 -30 4 -7 -1 -5 -11 5 -10 9 -14 21 -10 28 6 9 10 9 16 -1 7 -11 9 -10 9 4
0 9 4 17 10 17 5 0 7 6 4 13 -3 9 -31 13 -103 12 -55 0 -103 -3 -107 -8 -4 -4
2 -16 14 -27 l22 -20 -24 -63 c-22 -59 -77 -186 -133 -307 -14 -30 -34 -76
-44 -102 -10 -26 -34 -80 -52 -120 -19 -40 -37 -82 -41 -93 -5 -15 -9 -16 -15
-6 -5 7 -12 11 -17 9 -5 -1 -9 6 -9 17 0 11 -5 19 -11 18 -6 -1 -9 10 -6 28 3
22 0 29 -12 29 -9 0 -16 4 -16 10 0 5 6 8 13 6 6 -1 9 -1 4 1 -4 3 -5 9 -2 14
4 5 -2 6 -12 2 -16 -6 -17 -5 -3 12 14 17 13 18 -4 11 -20 -7 -20 -7 0 15 l19
22 -24 -13 c-13 -6 -21 -8 -17 -2 3 5 0 15 -8 21 -7 6 -11 23 -9 39 4 21 2 24
-6 12 -7 -10 -11 -11 -11 -2 0 6 1 14 3 15 1 2 -4 11 -12 20 -9 12 -10 17 -2
17 7 0 9 5 6 10 -4 6 -12 7 -18 3 -7 -4 -6 0 2 10 12 15 11 17 -2 17 -9 0 -19
5 -23 12 -4 7 -3 8 4 4 8 -5 11 1 10 18 -1 13 -6 22 -10 20 -5 -3 -6 -10 -3
-15 10 -15 -2 -10 -16 8 -8 9 -9 14 -3 10 7 -4 12 3 12 18 0 22 -3 24 -17 13
-14 -12 -14 -10 1 13 13 20 13 26 3 26 -8 0 -12 -4 -9 -8 2 -4 -1 -11 -8 -15
-7 -4 -10 -4 -6 1 4 4 2 17 -4 29 -13 23 -14 28 -16 69 -1 19 -6 26 -14 21 -8
-5 -9 -2 -4 11 5 15 4 16 -9 5 -13 -11 -14 -10 -9 4 6 15 18 20 38 17 5 -1 4
4 -2 12 -7 8 -9 17 -5 20 3 4 1 7 -6 7 -7 0 -11 -6 -8 -13 3 -8 -1 -14 -9 -14
-7 0 -10 5 -7 10 11 17 12 57 2 57 -6 0 -7 5 -3 11 3 6 -6 3 -22 -7 -28 -18
-29 -18 -14 1 14 17 13 18 -5 12 -16 -6 -15 -3 5 12 14 11 21 23 17 28 -9 8
-215 12 -223 4z m783 -641 c-1 -14 -4 -16 -14 -8 -16 13 -17 22 -1 12 8 -5 9
-2 5 10 -4 9 -3 15 2 11 6 -3 9 -14 8 -25z m-82 -180 c3 -6 -1 -7 -9 -4 -18 7
-21 14 -7 14 6 0 13 -4 16 -10z m-42 -131 c-4 -15 -8 -17 -14 -8 -6 11 4 28
18 29 0 0 -1 -9 -4 -21z m-183 -49 c0 -5 -4 -10 -10 -10 -5 0 -10 5 -10 10 0
6 5 10 10 10 6 0 10 -4 10 -10z"/>
<path d="M2013 1993 c-20 -7 -15 -19 14 -32 26 -12 27 -14 9 -26 -10 -8 -25
-11 -34 -9 -14 5 -14 4 1 -6 9 -6 15 -15 12 -19 -2 -5 2 -14 10 -21 10 -9 15
-9 15 -1 0 6 -4 11 -8 11 -5 0 -9 7 -9 15 0 9 6 14 14 11 8 -3 11 -1 8 4 -3 6
-2 10 3 10 16 0 22 -13 11 -27 -6 -7 -7 -13 -2 -13 12 0 57 -79 49 -87 -3 -3
1 -11 10 -17 8 -6 16 -21 17 -34 0 -12 5 -22 10 -22 5 0 7 -9 4 -20 -3 -11 0
-18 7 -17 6 1 10 -4 9 -10 -2 -7 2 -13 8 -13 6 0 8 -9 3 -22 -3 -13 -3 -20 1
-16 10 9 37 -41 29 -53 -3 -5 0 -9 6 -9 7 0 10 -6 7 -14 -3 -7 3 -20 14 -29
17 -15 25 -43 20 -70 -1 -5 3 -6 8 -3 5 3 11 -1 14 -8 3 -8 1 -17 -6 -20 -9
-3 -9 -5 1 -5 12 -1 37 -48 34 -63 -1 -5 3 -8 9 -8 5 0 8 -4 4 -9 -3 -5 0 -13
6 -17 8 -4 7 -9 -2 -15 -11 -7 -10 -9 5 -9 12 0 16 -5 12 -15 -3 -8 -1 -15 5
-15 6 0 7 -4 4 -10 -3 -5 -2 -10 3 -10 5 0 17 -19 27 -42 9 -24 21 -51 26 -61
10 -19 -4 -57 -21 -57 -6 0 -10 -7 -10 -15 0 -10 10 -15 30 -15 17 0 30 -4 30
-10 0 -5 -5 -10 -12 -10 -6 0 -8 -3 -5 -6 4 -4 15 -1 24 7 10 7 15 9 11 5 -4
-5 -3 -15 3 -22 8 -9 5 -11 -10 -7 -14 3 -19 0 -17 -11 1 -8 5 -18 8 -22 4 -3
4 -13 1 -22 -7 -18 -5 -17 17 12 13 18 13 19 0 11 -8 -4 -12 -4 -7 0 8 9 47
15 47 7 0 -3 -8 -11 -17 -18 -16 -12 -14 -13 11 -4 34 12 61 6 50 -11 -4 -8
-3 -9 5 -5 7 4 9 17 6 29 -4 13 -3 17 2 11 4 -6 25 -10 46 -9 30 2 36 0 27
-10 -8 -10 -7 -15 2 -21 7 -4 10 -4 6 1 -4 4 -1 14 7 21 17 17 29 18 19 2 -4
-7 -3 -8 4 -4 7 4 12 2 12 -5 0 -7 3 -9 6 -6 4 4 2 12 -3 19 -6 7 -9 23 -7 36
3 17 0 21 -8 16 -10 -6 -10 -5 -1 7 10 12 10 18 0 29 -10 10 -9 11 1 5 10 -5
13 -1 11 16 -4 30 7 50 25 43 7 -3 13 2 13 10 0 8 -4 13 -8 11 -4 -3 -9 1 -12
8 -4 10 2 13 21 10 15 -2 21 0 15 3 -18 8 -16 27 1 21 10 -4 13 -1 9 8 -3 8
-9 13 -13 10 -5 -3 -12 -1 -15 5 -4 6 -3 10 2 9 23 -4 43 2 38 11 -4 6 -12 7
-18 4 -7 -4 -8 -3 -4 2 5 5 16 9 25 9 18 0 20 23 7 60 -4 12 -4 15 2 8 6 -8
14 -9 23 -3 8 6 10 10 4 10 -7 0 -15 7 -18 16 -6 15 -4 15 11 3 15 -13 16 -12
11 9 -4 13 -2 20 4 16 6 -4 8 2 3 17 -5 19 -4 21 4 9 9 -13 11 -12 11 3 0 11
5 15 11 11 8 -4 9 1 4 16 -5 17 -4 21 6 16 8 -4 5 0 -6 9 -20 17 -20 17 3 10
21 -6 23 -5 13 13 -12 22 2 41 15 21 5 -8 3 -9 -6 -4 -9 5 -11 4 -6 -4 11 -16
26 -3 19 16 -5 12 -3 14 7 8 9 -5 11 -4 6 4 -4 6 -11 9 -16 6 -5 -3 -12 -1
-15 5 -4 6 -3 10 2 9 21 -4 33 2 33 17 0 8 4 12 10 9 6 -3 7 1 4 9 -3 9 -11
13 -17 9 -6 -3 -7 -1 -3 6 6 9 11 9 24 -1 10 -8 13 -9 9 -1 -4 7 2 18 15 27
12 9 17 16 10 16 -7 0 -10 5 -7 10 3 6 1 10 -5 10 -7 0 -9 -7 -5 -17 5 -15 4
-16 -7 -5 -11 11 -10 16 5 26 19 15 24 31 5 20 -6 -4 -8 -3 -4 4 3 6 15 9 26
7 12 -2 18 0 15 5 -3 4 1 11 7 14 7 3 2 3 -12 0 -23 -5 -23 -4 -8 9 12 10 14
17 7 24 -13 13 28 46 44 36 6 -3 7 -1 3 6 -4 6 -11 9 -16 6 -11 -7 -7 22 5 32
4 4 5 2 0 -6 -5 -9 -4 -12 2 -8 5 3 10 35 10 71 1 59 -1 64 -19 61 -12 -3 -18
1 -15 8 2 7 11 11 19 9 10 -1 15 5 14 20 -1 22 -4 23 -103 23 -76 1 -103 -3
-103 -12 0 -7 8 -17 19 -22 13 -8 17 -18 13 -38 -3 -15 -61 -156 -130 -313
-68 -157 -132 -302 -141 -322 -9 -21 -21 -38 -28 -38 -7 0 -10 -7 -7 -17 5
-15 4 -15 -5 -3 -7 11 -6 19 5 32 15 15 14 16 -6 11 -20 -5 -22 -3 -18 24 3
25 1 30 -11 26 -11 -3 -10 0 3 11 11 9 14 16 7 16 -7 0 -9 5 -5 12 4 7 3 8 -5
4 -6 -4 -8 -12 -5 -18 4 -7 2 -8 -5 -4 -7 5 -9 16 -5 29 6 19 5 20 -9 9 -13
-11 -15 -10 -10 9 5 17 3 20 -8 14 -8 -5 -11 -5 -7 0 4 4 2 15 -5 23 -8 10 -8
13 -1 9 7 -4 14 -1 17 7 6 16 -1 26 -17 26 -6 0 -4 -5 4 -10 8 -5 11 -10 5
-10 -5 0 -17 5 -25 10 -10 6 -11 10 -2 10 6 0 12 5 12 11 0 5 -4 8 -9 5 -5 -3
-14 1 -20 8 -9 11 -9 16 0 22 7 4 9 3 5 -4 -3 -6 -2 -13 3 -16 5 -3 11 3 14
14 3 11 2 19 -2 18 -17 -2 -31 3 -31 12 0 5 8 7 18 4 16 -5 16 -5 -1 6 -9 6
-23 8 -30 4 -9 -5 -9 -4 1 7 17 19 15 29 -5 22 -16 -6 -16 -5 -4 10 9 11 10
17 2 17 -6 0 -11 7 -11 16 0 9 -5 12 -12 8 -7 -4 -10 -3 -5 1 4 5 -1 17 -10
28 -10 11 -12 17 -5 13 6 -4 12 -2 12 3 0 6 -4 11 -9 11 -5 0 -14 14 -20 30
-7 22 -7 29 0 24 7 -4 7 1 0 15 -7 11 -14 21 -17 21 -3 0 -2 -5 2 -12 4 -7 3
-8 -4 -4 -6 4 -9 13 -6 21 4 8 11 12 17 8 6 -4 7 -1 2 6 -5 9 -10 10 -18 2 -6
-6 -16 -11 -22 -11 -5 0 -4 4 3 9 7 4 14 22 14 39 1 17 4 29 8 27 4 -2 7 2 7
10 0 8 -4 12 -8 9 -4 -2 -13 6 -20 18 -11 21 -11 22 4 10 13 -11 15 -10 10 6
-4 16 -12 19 -46 16 -30 -3 -38 -1 -27 6 8 5 11 10 5 10 -5 0 -2 5 8 11 9 5
17 15 17 22 0 9 -30 12 -102 13 -57 1 -109 -1 -115 -3z m252 -121 c-3 -3 -11
0 -18 7 -9 10 -8 11 6 5 10 -3 15 -9 12 -12z m0 -33 c-4 -5 -12 -9 -18 -8 -9
0 -8 2 1 6 6 2 9 10 6 15 -4 7 -2 8 5 4 6 -4 9 -12 6 -17z m640 -227 c-3 -3
-11 0 -18 7 -9 10 -8 11 6 5 10 -3 15 -9 12 -12z m-149 -337 c1 -9 -4 -11 -14
-7 -10 4 -12 7 -4 10 7 2 9 9 5 15 -3 7 -2 8 2 4 5 -4 10 -14 11 -22z"/>
<path d="M2238 1953 c7 -3 16 -2 19 1 4 3 -2 6 -13 5 -11 0 -14 -3 -6 -6z"/>
<path d="M645 1940 c3 -5 8 -10 11 -10 2 0 4 5 4 10 0 6 -5 10 -11 10 -5 0 -7
-4 -4 -10z"/>
<path d="M1237 1926 c-3 -8 -2 -18 3 -21 13 -8 20 9 11 24 -6 10 -10 9 -14 -3z"/>
<path d="M686 1917 c3 -10 9 -15 12 -12 3 3 0 11 -7 18 -10 9 -11 8 -5 -6z"/>
<path d="M2287 1919 c7 -7 15 -10 18 -7 3 3 -2 9 -12 12 -14 6 -15 5 -6 -5z"/>
<path d="M2954 1749 c-4 -7 -3 -9 4 -5 5 3 13 0 15 -6 4 -9 6 -10 6 -1 1 17
-16 25 -25 12z"/>
<path d="M725 1740 c3 -5 8 -10 11 -10 2 0 4 5 4 10 0 6 -5 10 -11 10 -5 0 -7
-4 -4 -10z"/>
<path d="M1270 1736 c7 -7 13 -7 20 0 6 6 3 10 -10 10 -13 0 -16 -4 -10 -10z"/>
<path d="M2310 1721 c0 -6 4 -13 10 -16 6 -3 7 1 4 9 -7 18 -14 21 -14 7z"/>
<path d="M2335 1660 c3 -5 8 -10 11 -10 2 0 4 5 4 10 0 6 -5 10 -11 10 -5 0
-7 -4 -4 -10z"/>
<path d="M827 1539 c7 -7 15 -10 18 -7 3 3 -2 9 -12 12 -14 6 -15 5 -6 -5z"/>
<path d="M1369 1548 c-8 -27 -5 -36 9 -30 10 4 12 7 4 10 -7 2 -10 8 -6 13 3
5 3 9 0 9 -3 0 -6 -1 -7 -2z"/>
<path d="M1380 1466 c0 -2 8 -10 18 -17 15 -13 16 -12 3 4 -13 16 -21 21 -21
13z"/>
<path d="M1790 1446 c0 -2 7 -6 15 -10 8 -3 15 -1 15 4 0 6 -7 10 -15 10 -8 0
-15 -2 -15 -4z"/>
<path d="M2806 1363 c-6 -14 -5 -15 5 -6 7 7 10 15 7 18 -3 3 -9 -2 -12 -12z"/>
<path d="M925 1330 c-3 -6 1 -7 9 -4 18 7 21 14 7 14 -6 0 -13 -4 -16 -10z"/>
<path d="M1466 1298 c3 -5 10 -6 15 -3 13 9 11 12 -6 12 -8 0 -12 -4 -9 -9z"/>
<path d="M2775 1300 c3 -5 8 -10 11 -10 2 0 4 5 4 10 0 6 -5 10 -11 10 -5 0
-7 -4 -4 -10z"/>
<path d="M1706 1252 c-3 -4 4 -9 15 -9 23 -2 25 3 4 10 -8 4 -16 3 -19 -1z"/>
<path d="M415 1230 c-3 -5 -1 -10 4 -10 6 0 11 5 11 10 0 6 -2 10 -4 10 -3 0
-8 -4 -11 -10z"/>
<path d="M1333 1185 c0 -8 4 -12 9 -9 5 3 6 10 3 15 -9 13 -12 11 -12 -6z"/>
<path d="M290 1139 c0 -5 5 -7 10 -4 6 3 10 8 10 11 0 2 -4 4 -10 4 -5 0 -10
-5 -10 -11z"/>
<path d="M2676 1121 c-4 -5 -2 -12 3 -15 5 -4 12 -2 15 3 4 5 2 12 -3 15 -5 4
-12 2 -15 -3z"/>
<path d="M865 1023 c1 -10 -2 -24 -8 -31 -7 -9 -6 -11 7 -6 11 4 16 2 14 -6
-2 -7 3 -14 10 -15 7 -2 8 -1 2 2 -8 3 -7 9 1 19 9 11 8 15 -5 20 -9 3 -14 10
-11 14 3 5 1 11 -4 14 -5 4 -8 -2 -6 -11z"/>
<path d="M1382 1013 c14 -15 15 -22 5 -33 -10 -12 -9 -12 6 -1 22 17 22 23 -5
40 -22 13 -22 13 -6 -6z"/>
<path d="M2679 1028 c-6 -21 -5 -38 1 -38 5 0 8 9 7 20 -1 17 -5 26 -8 18z"/>
<path d="M2396 1007 c3 -10 9 -15 12 -12 3 3 0 11 -7 18 -10 9 -11 8 -5 -6z"/>
<path d="M2563 965 c0 -8 4 -12 9 -9 5 3 6 10 3 15 -9 13 -12 11 -12 -6z"/>
</g>
</svg>
