<?xml version="1.0" standalone="no"?>

<svg version="1.0" xmlns="http://www.w3.org/2000/svg"
 width="415.000000pt" height="415.000000pt" viewBox="0 0 415.000000 415.000000"
 preserveAspectRatio="xMidYMid meet">
<metadata>
Created by potrace 1.11, written by Peter Selinger 2001-2013
</metadata>
<g transform="translate(0.000000,415.000000) scale(0.100000,-0.100000)"
fill="#000000" stroke="none">
<path d="M2059 4116 c-2 -2 -20 -7 -39 -10 -205 -33 -378 -210 -417 -426 -11
-58 -8 -189 4 -240 8 -30 16 -66 19 -80 15 -71 131 -264 219 -365 31 -35 126
-102 163 -114 36 -12 41 -17 36 -35 -11 -37 -9 -41 19 -44 15 -2 27 2 27 8 0
6 8 10 18 8 13 -2 17 4 17 25 -1 17 4 27 14 27 58 0 183 105 260 218 186 275
215 569 76 787 -84 131 -227 225 -355 234 -25 2 -48 5 -51 7 -3 2 -8 2 -10 0z"/>
<path d="M2052 2765 c-6 -14 -8 -25 -3 -25 8 0 23 41 17 47 -1 2 -8 -8 -14
-22z"/>
<path d="M2035 2720 c-10 -16 -37 -112 -33 -116 3 -2 13 26 24 61 20 63 22 76
9 55z"/>
<path d="M1986 2564 c-4 -14 -5 -28 -3 -31 3 -2 8 8 11 23 4 14 5 28 3 31 -3
2 -8 -8 -11 -23z"/>
<path d="M1970 2509 c0 -5 5 -7 10 -4 6 3 10 8 10 11 0 2 -4 4 -10 4 -5 0 -10
-5 -10 -11z"/>
<path d="M1966 2475 c-3 -8 -1 -15 4 -15 6 0 10 7 10 15 0 8 -2 15 -4 15 -2 0
-6 -7 -10 -15z"/>
<path d="M1955 2410 c-3 -5 -1 -10 4 -10 6 0 11 5 11 10 0 6 -2 10 -4 10 -3 0
-8 -4 -11 -10z"/>
<path d="M1953 2375 c0 -8 4 -12 9 -9 5 3 6 10 3 15 -9 13 -12 11 -12 -6z"/>
<path d="M1950 2314 c0 -8 5 -12 10 -9 6 4 8 11 5 16 -9 14 -15 11 -15 -7z"/>
<path d="M1950 2275 c0 -8 4 -15 8 -15 5 0 9 7 9 15 0 8 -4 15 -9 15 -4 0 -8
-7 -8 -15z"/>
<path d="M1958 2190 c2 -16 6 -30 8 -30 2 0 4 14 4 30 0 17 -4 30 -8 30 -5 0
-7 -13 -4 -30z"/>
<path d="M1966 2137 c3 -10 9 -15 12 -12 3 3 0 11 -7 18 -10 9 -11 8 -5 -6z"/>
<path d="M1976 2054 c3 -21 10 -43 15 -49 7 -7 8 -5 5 5 -3 8 -8 28 -10 44 -3
16 -8 31 -11 34 -3 3 -3 -12 1 -34z"/>
<path d="M1992 1962 c1 -18 6 -32 10 -32 5 0 5 12 2 28 -10 39 -15 41 -12 4z"/>
<path d="M2005 1890 c3 -5 8 -10 11 -10 2 0 4 5 4 10 0 6 -5 10 -11 10 -5 0
-7 -4 -4 -10z"/>
<path d="M2016 1840 c8 -43 14 -51 14 -19 0 13 -5 31 -10 39 -7 11 -8 5 -4
-20z"/>
<path d="M2037 1755 c3 -22 7 -42 9 -44 8 -9 2 45 -6 64 -7 14 -8 8 -3 -20z"/>
<path d="M2050 1681 c0 -11 4 -22 9 -25 4 -3 6 6 3 19 -5 30 -12 33 -12 6z"/>
<path d="M2061 1637 c-2 -14 53 -147 61 -147 4 0 -3 24 -16 53 -13 28 -28 63
-34 77 -6 14 -11 22 -11 17z"/>
<path d="M2130 1474 c0 -6 11 -37 25 -70 13 -32 24 -54 25 -48 0 6 -11 37 -25
70 -13 32 -24 54 -25 48z"/>
<path d="M2187 1320 c3 -11 9 -20 15 -20 5 0 4 9 -2 20 -6 11 -12 20 -14 20
-2 0 -2 -9 1 -20z"/>
<path d="M2208 1265 c2 -14 8 -25 12 -25 10 0 1 38 -10 45 -4 2 -5 -7 -2 -20z"/>
<path d="M2227 1199 c4 -13 8 -18 11 -10 2 7 -1 18 -6 23 -8 8 -9 4 -5 -13z"/>
<path d="M2235 1160 c3 -5 8 -10 11 -10 2 0 4 5 4 10 0 6 -5 10 -11 10 -5 0
-7 -4 -4 -10z"/>
<path d="M2241 1135 c1 -19 18 -51 18 -35 0 8 -4 22 -9 30 -5 8 -9 11 -9 5z"/>
<path d="M2255 1051 c1 -17 5 -34 9 -38 9 -10 7 40 -3 56 -6 9 -8 4 -6 -18z"/>
<path d="M2262 960 c0 -14 2 -19 5 -12 2 6 2 18 0 25 -3 6 -5 1 -5 -13z"/>
<path d="M2258 890 c-2 -22 0 -40 4 -40 5 0 8 18 8 40 0 22 -2 40 -4 40 -2 0
-6 -18 -8 -40z"/>
<path d="M2252 820 c0 -14 2 -19 5 -12 2 6 2 18 0 25 -3 6 -5 1 -5 -13z"/>
<path d="M2244 772 c-1 -9 -4 -30 -7 -46 -3 -16 -3 -26 0 -22 4 4 8 13 9 20 1
7 5 23 8 34 4 11 3 23 -1 25 -5 3 -9 -2 -9 -11z"/>
<path d="M2230 681 c0 -5 -3 -16 -6 -25 -3 -9 -2 -16 3 -16 5 0 10 11 11 25 1
14 0 25 -3 25 -3 0 -5 -4 -5 -9z"/>
<path d="M2211 588 c0 -9 -4 -25 -7 -35 -5 -17 -5 -17 6 0 6 10 9 25 7 35 -4
15 -5 15 -6 0z"/>
<path d="M2185 480 c-3 -5 -1 -10 4 -10 6 0 11 5 11 10 0 6 -2 10 -4 10 -3 0
-8 -4 -11 -10z"/>
<path d="M2179 458 c0 -2 -2 -12 -4 -23 -2 -11 -6 -31 -9 -45 l-7 -25 12 25
c12 26 20 70 13 70 -2 0 -4 -1 -5 -2z"/>
<path d="M2155 349 c-4 -6 -5 -12 -2 -15 2 -3 7 2 10 11 7 17 1 20 -8 4z"/>
<path d="M2140 305 c0 -8 2 -15 4 -15 2 0 6 7 10 15 3 8 1 15 -4 15 -6 0 -10
-7 -10 -15z"/>
<path d="M2129 273 c-1 -17 -7 -40 -23 -92 -9 -30 -14 -56 -12 -58 2 -3 12 22
21 54 21 71 27 103 20 103 -3 0 -5 -3 -6 -7z"/>
<path d="M2077 91 c-4 -17 -3 -21 5 -13 5 5 8 16 6 23 -3 8 -7 3 -11 -10z"/>
<path d="M2063 43 c-3 -10 -8 -22 -11 -27 -3 -5 0 -6 5 -3 11 7 25 47 17 47
-3 0 -7 -8 -11 -17z"/>
</g>
</svg>
